<svg width="512" height="512" xmlns="http://www.w3.org/2000/svg">

 <g>
  <title>background</title>
  <rect fill="none" id="canvas_background" height="402" width="582" y="-1" x="-1"/>
 </g>
 <g>
  <title>Layer 1</title>
  <path fill="#e4f9ff" id="svg_1" d="m320.2,243.8l-49.7,99.4c-6,12.1 -23.4,11.7 -28.9,-0.6l-56.9,-126.3l-30,71.7l-94.1,0l182.5,186.5c7.1,7.3 18.6,7.3 25.7,0l182.6,-186.5l-109.1,0l-22.1,-44.2zm153.5,-169.9l-2.4,-2.5c-51.5,-52.6 -135.8,-52.6 -187.4,0l-27.9,28.6l-27.9,-28.5c-51.5,-52.7 -135.9,-52.7 -187.4,0l-2.4,2.4c-48.7,49.8 -50.8,129.1 -7.3,182.1l102.4,0l35.9,-86.2c5.4,-12.9 23.6,-13.2 29.4,-0.4l58.2,129.3l49,-97.9c5.9,-11.8 22.7,-11.8 28.6,0l27.6,55.2l118.9,0c43.5,-53 41.4,-132.3 -7.3,-182.1z"/>
 </g>
</svg>